<svg width="760" height="781" viewBox="0 0 760 781" fill="none" xmlns="http://www.w3.org/2000/svg">
<g filter="url(#filter0_f_118_64)">
<circle cx="369.5" cy="390.5" r="190.5" fill="#FAA0DA"/>
</g>
<path d="M228.538 418V357.917H269.426V370.2H243.819V383.899H267.095V395.599H243.819V418H228.538ZM304.152 419.083C285.915 419.083 274.506 407.133 274.506 387.98V387.896C274.506 368.785 285.998 356.835 304.152 356.835C322.43 356.835 333.839 368.785 333.839 387.896V387.98C333.839 407.133 322.472 419.083 304.152 419.083ZM304.152 406.425C312.895 406.425 318.308 399.263 318.308 387.98V387.896C318.308 376.529 312.771 369.493 304.152 369.493C295.616 369.493 290.078 376.488 290.078 387.896V387.98C290.078 399.388 295.574 406.425 304.152 406.425ZM368.856 419.083C350.827 419.083 339.627 407.549 339.627 387.938V387.896C339.627 368.285 350.91 356.835 368.856 356.835C384.553 356.835 395.42 366.911 395.962 380.36V380.776H381.264L381.181 380.152C380.223 373.906 375.851 369.493 368.856 369.493C360.487 369.493 355.199 376.363 355.199 387.855V387.896C355.199 399.513 360.528 406.425 368.898 406.425C375.518 406.425 380.223 402.303 381.264 395.599L381.347 395.141H396.045L396.003 395.599C395.462 409.048 384.47 419.083 368.856 419.083ZM429.105 419.083C413.449 419.083 403.248 410.214 403.248 396.682V357.917H418.529V395.224C418.529 402.219 422.277 406.425 429.147 406.425C435.975 406.425 439.723 402.219 439.723 395.224V357.917H455.003V396.682C455.003 410.172 444.886 419.083 429.105 419.083ZM487.272 419.083C472.324 419.083 462.873 412.462 462.207 400.97L462.165 400.221H476.363L476.447 400.679C477.196 404.551 481.693 407.091 487.564 407.091C493.643 407.091 497.39 404.51 497.39 400.762V400.721C497.39 397.306 494.725 395.724 487.689 394.35L481.526 393.184C469.618 390.977 463.331 385.107 463.331 375.905V375.863C463.331 364.288 473.365 356.835 487.147 356.835C502.22 356.835 510.756 363.913 511.297 374.822L511.339 375.697H497.14L497.099 375.239C496.641 371.283 492.768 368.826 487.272 368.826C481.651 368.826 478.487 371.366 478.487 374.822V374.864C478.487 378.112 481.318 379.819 487.772 381.026L493.934 382.192C506.675 384.649 512.588 389.812 512.588 399.43V399.471C512.588 411.463 503.178 419.083 487.272 419.083Z" fill="#FFF5FB"/>
<path d="M311.016 458.195C307.648 458.195 305.586 456 305.586 452.328V452.32C305.586 448.711 307.656 446.531 310.961 446.531C313.672 446.531 315.516 448.109 315.891 450.227L315.914 450.336H313.547L313.516 450.258C313.141 449.164 312.242 448.531 310.969 448.531C309.109 448.531 307.992 449.906 307.992 452.297V452.305C307.992 454.75 309.18 456.195 311.055 456.195C312.594 456.195 313.648 455.281 313.711 453.891L313.719 453.727H311.141V451.969H316.016V453.266C316.016 456.336 314.156 458.195 311.016 458.195ZM317.578 458V446.727H325.047V448.672H319.938V451.375H324.758V453.219H319.938V456.055H325.047V458H317.578ZM329.445 458V448.672H326.188V446.727H335.07V448.672H331.805V458H329.445ZM339.07 458V448.672H335.812V446.727H344.695V448.672H341.43V458H339.07ZM346 458V446.727H348.359V458H346ZM350.234 458V446.727H352.297L357.391 454.055H357.438V446.727H359.789V458H357.742L352.633 450.617H352.586V458H350.234ZM366.75 458.195C363.383 458.195 361.32 456 361.32 452.328V452.32C361.32 448.711 363.391 446.531 366.695 446.531C369.406 446.531 371.25 448.109 371.625 450.227L371.648 450.336H369.281L369.25 450.258C368.875 449.164 367.977 448.531 366.703 448.531C364.844 448.531 363.727 449.906 363.727 452.297V452.305C363.727 454.75 364.914 456.195 366.789 456.195C368.328 456.195 369.383 455.281 369.445 453.891L369.453 453.727H366.875V451.969H371.75V453.266C371.75 456.336 369.891 458.195 366.75 458.195ZM376.484 458V446.727H381.391C383.516 446.727 384.852 447.82 384.852 449.555V449.57C384.852 450.805 383.914 451.859 382.672 452.023V452.07C384.242 452.188 385.375 453.297 385.375 454.773V454.789C385.375 456.766 383.883 458 381.477 458H376.484ZM380.781 448.477H378.844V451.438H380.492C381.82 451.438 382.531 450.883 382.531 449.906V449.891C382.531 448.992 381.883 448.477 380.781 448.477ZM380.773 453.039H378.844V456.242H380.875C382.227 456.242 382.969 455.688 382.969 454.641V454.625C382.969 453.594 382.219 453.039 380.773 453.039ZM386.719 458V446.727H394.188V448.672H389.078V451.375H393.898V453.219H389.078V456.055H394.188V458H386.719ZM398.586 458V448.672H395.328V446.727H404.211V448.672H400.945V458H398.586ZM408.211 458V448.672H404.953V446.727H413.836V448.672H410.57V458H408.211ZM415.141 458V446.727H422.609V448.672H417.5V451.375H422.32V453.219H417.5V456.055H422.609V458H415.141ZM424.312 458V446.727H428.969C431.5 446.727 433 448.07 433 450.336V450.352C433 451.836 432.211 453.07 430.961 453.562L433.336 458H430.664L428.562 453.914H426.672V458H424.312ZM426.672 452.125H428.711C429.883 452.125 430.586 451.461 430.586 450.352V450.336C430.586 449.258 429.844 448.57 428.68 448.57H426.672V452.125Z" fill="#121212"/>
<defs>
<filter id="filter0_f_118_64" x="-21" y="0" width="781" height="781" filterUnits="userSpaceOnUse" color-interpolation-filters="sRGB">
<feFlood flood-opacity="0" result="BackgroundImageFix"/>
<feBlend mode="normal" in="SourceGraphic" in2="BackgroundImageFix" result="shape"/>
<feGaussianBlur stdDeviation="100" result="effect1_foregroundBlur_118_64"/>
</filter>
</defs>
</svg>
