<svg width="138" height="44" viewBox="0 0 138 44" fill="none" xmlns="http://www.w3.org/2000/svg">
<path d="M2.12891 36V7.81641H21.3086V13.5781H9.29688V20.0039H20.2148V25.4922H9.29688V36H2.12891ZM68.4961 36.5078C60.0391 36.5078 54.7852 31.0977 54.7852 21.8984V21.8789C54.7852 12.6797 60.0781 7.30859 68.4961 7.30859C75.8594 7.30859 80.957 12.0352 81.2109 18.3438V18.5391H74.3164L74.2773 18.2461C73.8281 15.3164 71.7773 13.2461 68.4961 13.2461C64.5703 13.2461 62.0898 16.4688 62.0898 21.8594V21.8789C62.0898 27.3281 64.5898 30.5703 68.5156 30.5703C71.6211 30.5703 73.8281 28.6367 74.3164 25.4922L74.3555 25.2773H81.25L81.2305 25.4922C80.9766 31.8008 75.8203 36.5078 68.4961 36.5078ZM96.7578 36.5078C89.4141 36.5078 84.6289 32.3477 84.6289 26V7.81641H91.7969V25.3164C91.7969 28.5977 93.5547 30.5703 96.7773 30.5703C99.9805 30.5703 101.738 28.5977 101.738 25.3164V7.81641H108.906V26C108.906 32.3281 104.16 36.5078 96.7578 36.5078ZM124.043 36.5078C117.031 36.5078 112.598 33.4023 112.285 28.0117L112.266 27.6602H118.926L118.965 27.875C119.316 29.6914 121.426 30.8828 124.18 30.8828C127.031 30.8828 128.789 29.6719 128.789 27.9141V27.8945C128.789 26.293 127.539 25.5508 124.238 24.9062L121.348 24.3594C115.762 23.3242 112.812 20.5703 112.812 16.2539V16.2344C112.812 10.8047 117.52 7.30859 123.984 7.30859C131.055 7.30859 135.059 10.6289 135.312 15.7461L135.332 16.1562H128.672L128.652 15.9414C128.438 14.0859 126.621 12.9336 124.043 12.9336C121.406 12.9336 119.922 14.125 119.922 15.7461V15.7656C119.922 17.2891 121.25 18.0898 124.277 18.6562L127.168 19.2031C133.145 20.3555 135.918 22.7773 135.918 27.2891V27.3086C135.918 32.9336 131.504 36.5078 124.043 36.5078Z" fill="#FFF5FB"/>
<circle cx="38" cy="22" r="12" stroke="#FFF5FB" stroke-width="6"/>
<circle cx="38" cy="22" r="3.5" stroke="#FFF5FB" stroke-width="3"/>
</svg>
